<svg xmlns="http://www.w3.org/2000/svg" width="228" height="155"><defs><clipPath id="mb0aa"><path fill="#fff" d="M60.707 78.2L60 77.5l.707-.7 16.97-16.79.708.7-16.97 16.79 16.97 16.79-.707.7-16.97-16.79z"/></clipPath><clipPath id="mb0ab"><path fill="#fff" d="M84.678 60.01l.707.7-16.97 16.79 16.97 16.79-.707.7L67 77.5z"/></clipPath><clipPath id="mb0ac"><path fill="#fff" d="M168 77.5v-.99H61v.99z"/></clipPath></defs><path fill="none" stroke="#bb9c66" stroke-miterlimit="20" stroke-width="6" d="M60.707 78.2L60 77.5l.707-.7h0l16.97-16.79.708.7-16.97 16.79 16.97 16.79-.707.7-16.97-16.79z" clip-path="url(&quot;#mb0aa&quot;)"/><path fill="none" stroke="#bb9c66" stroke-miterlimit="20" stroke-width="6" d="M84.678 60.01l.707.7-16.97 16.79 16.97 16.79-.707.7L67 77.5z" clip-path="url(&quot;#mb0ab&quot;)"/><path fill="none" stroke="#bb9c66" stroke-miterlimit="20" stroke-width="6" d="M168 77.5v0-.99 0H61v.99z" clip-path="url(&quot;#mb0ac&quot;)"/></svg>